<?xml version="1.0" encoding="utf-8"?>

<!DOCTYPE svg PUBLIC "-//W3C//DTD SVG 1.1//EN" "http://www.w3.org/Graphics/SVG/1.1/DTD/svg11.dtd">
<svg version="1.1"
	 id="svg1923" xmlns:cc="http://web.resource.org/cc/" xmlns:dc="http://purl.org/dc/elements/1.1/" xmlns:rdf="http://www.w3.org/1999/02/22-rdf-syntax-ns#" xmlns:svg="http://www.w3.org/2000/svg" sodipodi:docbase="C:\Dokumente und Einstellungen\Richard\Desktop" sodipodi:docname="reichsadler.svg" sodipodi:version="0.32" inkscape:version="0.44.1" xmlns:inkscape="http://www.inkscape.org/namespaces/inkscape" xmlns:sodipodi="http://sodipodi.sourceforge.net/DTD/sodipodi-0.dtd" xmlns:ns1="http://sozi.baierouge.fr"
	 xmlns="http://www.w3.org/2000/svg" xmlns:xlink="http://www.w3.org/1999/xlink" x="0px" y="0px"
	 viewBox="-8.1907 -33.676 2572.1907 1668.1096" enable-background="new -8.1907 -33.676 2572.1907 1668.1096" xml:space="preserve"
	>
<sodipodi:namedview  id="base" inkscape:window-height="969" inkscape:pageshadow="2" inkscape:window-width="1280" inkscape:window-x="-4" inkscape:current-layer="svg1923" inkscape:pageopacity="0.0" inkscape:window-y="-4" bordercolor="#666666" gridtolerance="10.0" objecttolerance="10.0" inkscape:cx="648.5" inkscape:cy="423" guidetolerance="10.0" inkscape:zoom="0.44562648" pagecolor="#ffffff" borderopacity="1.0">
	</sodipodi:namedview>
<g>
	<path fill="gold" id="path1932" d="M1238.7423,1598.0374c-3.8307-1.838-4.3724-3.231-3.5212-9.0544
		c0.5419-3.7727,3.4246-32.3676,6.3845-63.5164c2.9602-31.1294,5.8429-57.3059,6.4232-58.1572
		c0.5804-0.8319,15.5164-1.1608,33.1803-0.6964l32.116,0.8125l7.7389,63.1488c4.9722,40.3966,7.139,64.3677,6.0363,66.5344
		c-1.5671,3.0569-5.5526,3.3665-42.7764,3.2504C1258.1086,1600.2816,1241.6443,1599.4304,1238.7423,1598.0374z M1258.96,1583.8947
		c6.4619-15.4583,4.9529-48.5997-2.5538-56.1064c-2.7666-2.7666-3.405-2.6892-7.1196,1.0255
		c-3.5599,3.5598-4.1404,6.7714-4.7014,25.9443c-0.4836,16.4449,0.0968,23.642,2.3218,28.9624
		C1250.6602,1592.7361,1255.226,1592.7942,1258.96,1583.8947z M1288.5223,1582.076c3.2889-9.4608,3.5598-35.8114,0.5031-46.6844
		c-3.2697-11.705-8.532-12.6917-13.8524-2.6118c-4.0437,7.6228-3.5212,43.8018,0.7351,51.8694
		c4.4304,8.3579,9.1705,7.3906,12.6144-2.5731H1288.5223z M1315.2599,1583.5658c6.1718-14.4716,3.2504-54.4232-4.1597-57.2672
		c-10.7181-4.1016-16.2128,37.4172-7.7001,58.2345C1306.8246,1592.8911,1311.4485,1592.5042,1315.2599,1583.5658z
		 M1199.5066,1594.6709c-4.3143-2.2828-7.5261-5.6493-8.2806-8.7061c-1.3156-5.2432-0.2128-8.6869,2.786-8.6869
		c0.9673,0,5.5332-2.6699,10.1378-5.9008c5.1077-3.5985,9.5962-5.4172,11.5309-4.682c6.8682,2.6312,6.4812,26.2152-0.4836,29.9492
		C1210.2441,1599.2755,1207.6129,1598.9467,1199.5066,1594.6709z M1342.6747,1594.2067c-0.8319-8.087,0.9673-22.1718,3.1147-24.3966
		c2.1089-2.2056,4.2177-1.2963,12.8851,5.5719c13.3108,10.5055,13.3881,13.7946,0.3483,16.3483
		c-5.5139,1.1029-10.6603,2.6312-11.4535,3.4438c-2.1669,2.2057-4.6239,1.7219-4.8948-0.9673L1342.6747,1594.2067z
		 M1373.8621,1576.0591c-16.0774-10.6215-27.0665-21.9202-27.0665-27.821c0-4.6626,1.7606-5.6493,25.6349-14.3942
		c49.7992-18.2056,64.4255-24.2999,74.0024-30.8198c13.3495-9.0931,20.7207-17.2382,19.1921-21.2045
		c-1.8573-4.8561-8.1643-3.9275-23.7582,3.5599c-20.5852,9.8669-44.3434,17.8573-72.1644,24.2999
		c-13.4656,3.1342-25.4414,5.688-26.6022,5.688c-2.6312,0-2.7279-12.2273-0.1548-21.4559c1.0447-3.8113,5.3204-10.6215,9.4801-15.11
		c4.1403-4.5079,9.5768-12.9044,12.0725-18.6699s5.1656-10.5055,5.9009-10.5248c1.7025-0.0388,5.3977,12.9238,5.3977,18.9214
		c0.0194,2.4377,2.1475,6.5781,4.7594,9.1898c6.6554,6.6361,23.6034,6.8683,29.5237,0.4064c7.1777-7.8549,9.9637-16,11.3567-33.1802
		c1.451-18.0121,3.6952-22.4425,11.376-22.4425c5.959,0,7.4293,4.5272,4.0823,12.5367c-1.4897,3.5986-3.3276,11.3374-4.0629,17.1996
		c-1.2383,9.983-0.9867,11.0085,4.0049,15.613c4.4691,4.1597,7.1777,4.9529,16.8705,4.9529c10.7958,0,12.0338-0.4836,18.9021-7.3325
		c5.9396-5.9589,7.7776-9.6735,9.751-19.6759c1.3348-6.7714,4.0242-13.9298,5.9783-15.8839
		c7.5066-7.4873,26.7955-2.2635,37.1656,10.0604c6.5393,7.7582,6.6941,18.6506,0.4836,32c-7.4485,16-11.937,18.3798-33.567,17.7799
		c-17.1415-0.4836-18.4764-0.2321-21.9589,4.0629c-2.4377,2.9794-3.7146,7.5647-3.7146,13.2527
		c0,7.2938,1.0447,9.7316,6.578,15.2649c3.6179,3.6178,8.0098,6.578,9.7703,6.578c2.5732,0,13.6591,4.6626,16.1548,6.7908
		c0.3094,0.2709,0,2.786-0.7158,5.6107c-2.5151,10.0217-19.734,14.1427-29.6398,7.1003
		c-14.5875-10.3894-52.9141-16.8126-66.4763-11.1439c-6.3459,2.6699-7.2551,3.8694-7.2551,9.5381
		c0,3.5791,1.8379,11.9177,4.0627,18.5345c4.8174,14.2394,3.2891,17.7412-7.7194,17.7412c-4.8562,0-10.3314-2.1863-17.6445-7.0231
		H1373.8621z M1149.4751,1576.33c-2.6892-3.2502-1.8959-9.5381,2.786-22.0748c3.9275-10.5055,2.4957-18.1282-4.4111-23.6035
		c-8.6675-6.8682-24.0677-4.4304-48.0774,7.6228c-19.2115,9.6348-19.8888,9.809-26.3313,7.1196
		c-4.0822-1.7025-7.5454-4.9915-8.9965-8.4933c-2.7278-6.5587-1.7412-9.0931,8.7836-22.907c3.9275-5.127,6.578-10.8344,6.578-14.104
		c0-4.8174-1.509-6.2683-11.9177-11.4728c-6.5586-3.2697-14.3361-5.9395-17.2769-5.9395c-3.4244,0-7.8549-2.3604-12.2661-6.52
		c-6.3651-5.9976-6.9069-7.4099-6.9069-17.6057c0-19.5212,9.0156-30.046,25.7316-30.046c6.7327,0,11.0278,3.6179,20.8561,17.6057
		c2.4185,3.4631,5.3785,4.5079,14.5297,5.1656c14.5684,1.0641,19.2117-2.3217,24.803-18.1088
		c3.9081-11.0085,4.3143-11.4341,10.8151-11.4341c6.6554,0,6.8102,0.1935,8.9963,10.6409
		c4.8949,23.3712,10.37,41.6543,13.8524,46.3362c8.3967,11.2406,29.3689,12.4595,34.6313,2.0315
		c1.3348-2.6699,2.457-9.8864,2.4764-16.0387c0.0194-14.1233,3.3857-16.1161,12.4208-7.3519
		c9.8669,9.5769,14.3361,20.4692,16.2902,39.8937c0.948,9.5381,1.1802,17.9927,0.4836,18.7666
		c-2.0895,2.3604-51.9275-11.6663-74.6409-21.0302c-34.3411-14.1427-36.8561-14.994-40.2418-13.6978
		c-5.5139,2.1089-1.6444,6.636,14.6263,17.0641c19.5598,12.5369,37.5525,20.9915,72.0483,33.7992
		c26.3313,9.7703,27.1052,10.2153,27.6857,16.0387c0.5031,4.9916-0.4449,6.6166-5.8042,9.8862
		c-3.5211,2.1476-9.364,4.4692-13.0011,5.1464c-3.6179,0.6964-11.3761,4.6045-17.2382,8.7255
		c-8.7062,6.0944-12.3241,7.4679-19.7726,7.4679c-5.7268,0-10.0219-1.0834-11.5116-2.8827L1149.4751,1576.33z M1424.1837,1571.9382
		c0-2.9408-0.8125-8.1644-1.7992-11.6083c-1.3738-4.798-1.1996-6.2684,0.7158-6.2684c2.9794,0,19.9274,9.2092,21.4171,11.647
		c1.1028,1.7605-14.2394,11.5695-18.0894,11.5695c-1.2383,0-2.2443-2.3989-2.2443-5.3397H1424.1837z M1112.5222,1562.0325
		l-4.4885-3.6178l6.0557-6.0557c4.1597-4.1403,7.913-6.0363,11.9951-6.0363c7.2939,0,7.5261,2.5925,1.0448,12.1112
		C1121.5959,1566.5791,1118.9454,1567.2368,1112.5222,1562.0325z M1020.3916,1508.77
		c-10.4087-7.8743-21.4172-16.9286-24.4739-20.1401l-5.5139-5.8235l10.3506-1.2963c9.8282-1.2189,11.3761-0.7545,29.2528,8.5514
		c10.3893,5.3977,20.179,9.8282,21.7654,9.8282s2.8827,0.4064,2.8827,0.9287c0,1.4316-13.5623,22.2878-14.491,22.2878
		c-0.4448,0-9.3446-6.4426-19.7726-14.3362L1020.3916,1508.77z M1506.4087,1515.0385c-13.6978-5.3785-15.6519-8.1451-4.8368-6.8102
		c4.798,0.5997,10.4861,1.6252,12.653,2.3024c4.74,1.4316,19.5791-12.4983,31.0519-29.156l7.2358-10.5055h13.2334
		c9.2672,0,13.2141,0.7158,13.2141,2.399c0,3.4244-28.7303,30.8198-40.9576,39.0616
		C1526.2781,1520.2041,1520.7834,1520.6877,1506.4087,1515.0385z M1162.7859,1466.6902c-5.6687-7.9709-6.4619-24.145-1.335-27.4341
		c4.5273-2.902,5.9009-0.9092,6.3265,9.2672c0.2128,5.1656,1.7413,10.2539,3.7727,12.4789
		c1.8574,2.0702,3.0955,5.3398,2.7279,7.2745C1173.1365,1474.1775,1167.5647,1473.423,1162.7859,1466.6902z M965.1752,1463.7882
		c-7.5647-2.1282-2.341-10.8151,6.9262-11.5502c9.7122-0.7739,19.9662-5.5138,22.6167-10.4667
		c4.624-8.6288-3.2697-26.4861-14.2588-32.2515c-4.2756-2.2443-12.711-3.4244-28.3434-4.0049
		c-25.4607-0.9286-31.555-3.2697-30.5876-11.6855c0.4836-4.2563,3.0181-6.4426,14.0652-12.1113
		c14.7038-7.5646,18.9794-13.601,17.0447-24.0289c-2.8633-15.5164-11.9371-20.121-49.4897-25.1511
		c-7.7194-1.0447-9.925-2.283-13.0399-7.3906c-2.1282-3.4824-3.7534-9.6542-3.7727-14.2008v-8.0291l15.168,1.0255
		c18.8828,1.2961,28.2467-1.4318,32.387-9.4414c4.4885-8.6868,1.838-16.5804-9.1124-27.2019
		c-8.5707-8.3192-9.4221-9.9445-9.4221-17.9928c0-6.8102,1.0834-9.9443,4.7401-13.601c4.1403-4.1404,6.5006-4.7401,18.2443-4.7401
		c12.208,0,13.8719,0.4644,17.4317,4.9916c3.9081,4.9723,4.0049,9.3253,0.4837,22.0944
		c-3.5405,12.827,4.6432,25.1511,16.6965,25.1511c7.6034,0,21.3785-3.5405,25.2479-6.5006c1.4124-1.0834,4.3531-5.4558,6.52-9.7123
		c3.7339-7.2938,4.1209-7.5453,6.636-4.1208c5.4365,7.4485,3.3083,13.9298-8.8802,27.0277
		c-12.8465,13.8138-14.4523,17.8379-13.1947,32.9093c0.6191,7.4873,2.3604,12.3822,6.2104,17.4512
		c10.2733,13.4462,19.7147,12.885,30.2589-1.7993c3.4824-4.8561,7.4292-8.8223,8.7449-8.8223
		c2.3796,0,12.4208,10.6796,12.4208,13.1947c0,0.7158-2.0702,9.7896-4.5659,20.179c-6.8488,28.266-4.3143,33.896,16.0387,35.7339
		c6.4619,0.5999,11.7437,1.7993,11.7437,2.6699c0,2.4377-6.907,5.6107-12.1886,5.6107c-2.5927,0-9.2092,1.8573-14.7231,4.1597
		l-10.0217,4.1597l-6.6941-6.5006c-8.4934-8.2225-22.0556-29.2721-37.8041-58.7183c-6.7715-12.6722-13.4849-24.2031-14.9166-25.6348
		c-3.2697-3.2697-11.3954-3.3857-12.5175-0.1742c-2.5925,7.4099,10.1378,35.2697,32.7158,71.6614
		c17.78,28.653,21.9782,36.7013,21.9782,42.1765c0,7.2745-7.8549,17.509-16.2709,21.1464
		c-8.1257,3.5405-28.4982,6.191-34.5151,4.4885V1463.7882z M1390.307,1458.7772c-0.4836-1.335-0.2322-6.7715,0.561-12.0919
		c1.2769-8.6481,1.9541-9.6735,6.249-9.6735c4.5079,0,4.7981,0.5803,4.4885,9.2672c-0.1741,5.1077-1.3542,10.5441-2.6505,12.0919
		C1396.0918,1461.834,1391.4678,1462.0276,1390.307,1458.7772z M1550.4812,1447.6914
		c-11.2019-6.8102-11.0859-21.7267,0.3094-38.7328c10.8342-16.2128,45.8525-87.1005,45.1947-91.5115
		c-0.3096-2.1282-2.0508-4.798-3.8501-5.9202c-4.4304-2.7666-10.1959,2.5344-16.8126,15.4583
		c-6.1716,12.0919-20.4304,35.4825-36.1403,59.3373l-11.7242,17.7993l-12.5756,0.561c-16.2322,0.7158-21.0884-2.786-26.6796-19.3276
		c-5.7268-16.948-5.4558-18.9601,2.5538-18.9601c4.682,0,8.8995,1.9347,14.6844,6.7715c6.4619,5.3785,9.7316,6.7521,16.1355,6.6941
		c22.6361-0.1742,28.3241-29.7944,8.6095-44.827c-8.4547-6.462-12.769-15.7098-9.2672-19.9081
		c3.7146-4.4691,9.4801-3.4824,16.7352,2.9021c5.4752,4.798,8.2998,5.8041,16.3096,5.8041c8.0096,0,10.5248-0.9093,14.4521-5.1271
		c8.4353-9.1124,4.8368-22.1136-10.6215-38.4619c-13.0787-13.8524-17.4705-29.7944-9.0544-33.0254
		c1.5283-0.5803,8.5901,1.2769,15.7291,4.1403c17.0448,6.8103,20.3531,5.4172,25.8669-10.931
		c6.0944-18.0895,9.7123-21.069,25.4414-21.069c10.2346,0,14.2782,0.9092,19.4825,4.4111
		c5.6299,3.7727,6.6554,5.6687,7.1196,13.0593c0.4644,7.197-0.619,10.4087-6.4619,19.231
		c-8.8029,13.3107-12.4595,20.353-12.4595,23.9904c0,9.8282,18.5151,12.15,32.5997,4.0822
		c9.3252-5.3204,13.8331-5.9783,17.3156-2.4764c3.1343,3.1342,2.9408,14.0847-0.387,20.5078
		c-5.1077,9.8862-8.6868,11.4921-27.2793,12.3434c-26.7375,1.2189-38.6747,8.9189-41.035,26.4474
		c-0.8319,6.2878-0.2516,9.0156,2.5731,12.15c3.347,3.7146,4.9529,3.9275,20.4305,2.7086
		c15.3809-1.1995,17.1414-0.9674,20.798,2.7086c3.9662,3.9661,5.3398,13.775,2.8248,20.295
		c-2.2637,5.9008-13.4463,9.4414-25.4607,8.0483c-6.0944-0.6965-18.9215-1.7606-28.4982-2.3604
		c-15.8258-1.0061-17.896-0.7158-22.6747,3.0569c-2.8827,2.283-6.1329,7.3712-7.2357,11.318
		c-5.9009,21.243,0.4836,31.7678,20.7013,34.0508c13.8333,1.567,19.0182,5.1849,15.8646,11.0664
		c-3.0955,5.7848-9.9445,7.526-29.5236,7.5066c-14.2395,0-18.9989-0.7545-23.9905-3.8113H1550.4812z M1456.4546,1438.4629
		c0.7739-2.9408,1.1802-8.3773,0.9093-12.0919c-0.271-3.734-0.658-12.4402-0.8707-19.347l-0.387-12.5756l6.5781-0.6385
		c6.9648-0.6578,9.7701,1.7219,9.8669,8.3773c0.058,4.9529-14.0266,41.5574-16.0001,41.5768c-0.8125,0-0.8512-2.3796-0.0967-5.301
		H1456.4546z M943.7386,1436.683c-0.7158-0.7158-1.2963-3.4244-1.2963-6.0363c0-4.6046,0.3483-4.7207,11.5696-3.9082
		c13.8911,1.0061,16.0387,2.6118,9.983,7.526C959.5645,1437.8632,946.4666,1439.4109,943.7386,1436.683z M1090.66,1425.2295
		c-1.8959-4.9141-1.3542-22.0168,0.8319-26.0797c2.5732-4.8174,11.4341-5.0883,11.7631-0.3483
		c0.387,5.8235-0.3289,8.8804-4.5658,19.347C1094.3748,1428.7701,1092.6141,1430.3372,1090.66,1425.2295z M1608.948,1417.2393
		c-16.6965-5.1077-20.0049-6.6167-21.2045-9.7509c-1.896-4.9335,2.0702-7.0037,14.994-7.8356
		c14.3942-0.9093,26.5248,3.1342,26.5248,8.861c0,3.1923-7.5646,12.3434-9.7896,11.8597
		c-0.4644-0.0967-5.2043-1.5092-10.5248-3.1342V1417.2393z M1060.9044,1375.7397c-3.4244-3.4244-2.9214-11.2019,0.7932-12.6337
		c3.9275-1.509,8.8029,4.5853,8.0291,10.0219c-0.6578,4.5658-5.4558,5.9783-8.8223,2.6117V1375.7397z M902.8391,1367.7107
		c-1.7993-2.7279-2.9794-6.9843-2.6312-9.4413c0.7352-5.1464,4.1016-5.1851,20.4111-0.2516
		c6.6167,2.0121,10.5248,4.3724,11.2986,6.8296c1.6638,5.243,0.7739,5.7074-13.3494,6.8296
		c-11.7823,0.948-12.653,0.7351-15.7292-3.9662V1367.7107z M1506.5828,1352.6974c-5.3397-6.3265-5.688-7.4679-3.8306-12.2661
		c2.9601-7.7388,15.1487,0.6771,17.4122,12.0146c1.1416,5.6686,0.8126,6.2104-3.6759,6.2104
		C1513.3931,1358.6564,1509.7557,1356.4701,1506.5828,1352.6974z M1625.3929,1337.4132c-2.4764-1.5671-2.3411-2.2443,0.9673-4.7401
		c5.3011-4.0048,13.2335-5.3204,27.8984-4.6046c13.0786,0.6191,16,2.844,10.7375,8.1064c-2.3989,2.399-7.0035,3.1149-19.908,3.0955
		c-9.2286-0.0193-18.0895-0.8512-19.6953-1.8573V1337.4132z M1006.9261,1322.6901c-2.6893-7.0035,11.1826-24.5707,16.6965-21.1656
		c2.5538,1.5865,2.6505,8.7643,0.1161,8.7643c-1.0447,0-3.676,3.4824-5.8428,7.7389c-4.0822,7.9902-8.919,10.041-10.9698,4.6625
		H1006.9261z M1532.2562,1294.4241c-4.4497-6.2296-3.3857-11.5887,2.5345-12.7498c5.1849-1.0254,13.4847,7.2745,12.8464,12.8466
		C1546.7279,1302.2983,1537.8282,1302.2402,1532.2562,1294.4241z M881.9056,1279.3141c-7.913-6.2297-11.2987-17.9347-10.6409-36.74
		c0.6578-19.4825,3.0762-21.3591,14.22-11.1633c6.6168,6.0751,7.1971,7.5067,8.5707,21.5333
		c1.2189,12.4208,2.341,15.9419,6.5393,20.3143c7.4873,7.8162,6.5587,9.9445-4.3337,9.9445
		C889.7798,1283.2029,885.33,1281.984,881.9056,1279.3141z M1658.3409,1258.5354c0.0387-0.8125,1.3348-3.1536,2.902-5.2238
		c1.6058-2.1089,2.844-7.8936,2.844-13.2334c0-11.3567,4.1788-20.9529,11.9951-27.5308c7.2745-6.1136,12.6337-6.1331,15.4196-0.0388
		c2.1282,4.682,1.1222,11.0085-6.3651,40.2225l-1.8573,7.2551h-12.4983c-6.8682,0-12.4789-0.6578-12.4401-1.451L1658.3409,1258.5354
		z M977.2671,1253.0795c0-4.5465,3.4244-10.1378,15.0519-24.532c12.1113-15.0133,15.9033-16.4257,15.9033-5.9396
		c0,8.4547-4.9335,16.1548-16.8513,26.2539C982.278,1256.562,977.2671,1258.0518,977.2671,1253.0795z M1556.1692,1229.8824
		c-3.0182-2.1282-4.295-4.9916-4.295-9.6736c0-6.075,0.5031-6.6554,5.6687-6.6554c6.3459,0,13.6783,8.2032,13.6783,15.2843
		c0,3.1342-1.1995,4.0627-5.3785,4.0627C1562.8826,1232.9005,1558.5294,1231.5463,1556.1692,1229.8824z M887.2839,1213.3407
		c-15.3229-8.0676-21.5719-17.1608-18.1669-26.37c1.1221-3.0375,3.8888-4.3143,11.705-5.3978
		c19.5986-2.6892,28.7496-19.3857,19.2115-35.0374c-2.3603-3.8695-6.8295-7.2552-12.3821-9.3833
		c-7.2358-2.7666-9.1898-4.6433-11.7629-11.4148c-1.7026-4.4498-3.0956-10.4475-3.0956-13.3495
		c0-5.1077,0.2902-5.2432,11.2987-5.2432c6.2297,0,16.4449,1.6832,22.7134,3.7534c10.7183,3.5405,11.6082,3.5598,15.0327,0.4836
		c9.9637-8.9578,7.8355-19.9662-7.8936-41.1512c-12.9432-17.4124-16.7352-25.7314-15.1874-33.3929
		c1.6832-8.4353,4.6046-10.9504,12.6917-10.9504c5.2043,0,9.5768,1.7993,15.7291,6.4812
		c10.9698,8.3773,16.0967,9.9058,23.2358,6.965c6.2684-2.6118,10.1765-8.7256,12.2466-19.2504
		c2.9794-15.0906,5.0883-19.347,9.5381-19.347c12.1113,0,41.8282,23.2552,41.8282,32.7352c0,2.1281-2.6119,6.5586-5.8041,9.8282
		c-4.5079,4.6046-5.8041,7.6808-5.8041,13.7363c0,4.2758,0.948,9.5769,2.1088,11.7438c1.954,3.6372,3.2503,3.85,16.6965,2.5925
		c14.7812-1.3929,17.8378-0.3289,17.9153,6.191c0.0581,4.3143-13.9879,12.1692-21.746,12.1692
		c-8.6481,0-29.3688,9.8284-32.3096,15.3423c-5.8622,10.931,0.0193,25.925,11.5115,29.3688
		c4.237,1.2769,9.1318,3.8888,10.8924,5.8235c2.9601,3.2889,2.9601,3.8694-0.0193,8.3966
		c-1.7412,2.6893-7.4873,7.0618-12.7497,9.7317c-13.0399,6.5973-23.2551,15.9032-23.2551,21.1462
		c0,2.3604,2.6505,7.2551,5.8815,10.873c7.0616,7.913,8.8802,14.0653,6.0169,20.3724c-1.8187,3.9662-3.5018,4.7014-10.9698,4.7014
		c-5.0303,0-12.1113-1.6832-16.4837-3.9082c-7.4486-3.8113-7.6614-4.1982-7.6614-14.0266
		c0.0193-14.1814,5.1076-44.0338,10.6602-62.3555c7.5647-25.093,8.7642-32.4257,6.5974-40.2999
		c-1.393-5.0496-3.0375-7.1003-5.688-7.1003c-6.8875,0-7.3132,1.1028-27.9758,72.5514
		c-14.665,50.6893-17.9734,57.0739-29.6978,57.0739C898.1957,1217.423,891.521,1215.585,887.2839,1213.3407z M1636.6335,1206.2983
		c-2.7279-2.9408-5.8815-7.139-7.0229-9.3446c-3.347-6.5199-13.7363-49.7413-15.6519-65.0254
		c-0.9673-7.7776-4.4497-21.3978-7.7388-30.2588c-3.2891-8.8416-5.9783-17.6445-5.9783-19.5404
		c0-4.8755-9.0739-14.0847-13.098-13.2915c-2.6311,0.5225-3.2115,2.283-2.6892,8.358
		c0.619,7.4679,16.7738,108.0918,18.6311,116.1982c0.7159,3.0955-0.7739,4.9722-6.5393,8.2225
		c-8.2612,4.6433-15.6517,5.3204-22.0748,2.0121c-5.8042-2.9795-14.8585-11.6277-14.8585-14.2008
		c0-1.1608,3.6952-3.8113,8.2224-5.9202c7.2552-3.3665,8.2999-4.6626,8.8223-10.9891c0.8707-10.4667-2.1281-14.3362-16.7544-21.7074
		c-14.4523-7.2744-18.3411-10.8536-17.3737-15.9225c0.7352-3.8114,6.8102-5.9976,17.451-6.2684
		c4.5465-0.1355,9.1125-1.896,12.5369-4.8368c9.8284-8.4546,5.7848-27.0665-7.2745-33.4318
		c-2.5731-1.2576-12.885-3.1923-22.9456-4.2949c-16.058-1.7799-18.9601-2.6893-23.7195-7.4486
		c-2.9794-2.9794-6.2104-8.1451-7.1584-11.4922c-2.7666-9.6735,1.2189-13.3881,17.3542-16.0967
		c11.9564-2.0314,13.9105-2.9408,15.5938-7.3712c2.7472-7.2358,1.0641-11.6276-8.861-23.2745
		c-4.8368-5.6494-8.7836-12.0532-8.7836-14.1815c0-5.301,9.6348-13.9299,22.2297-19.8888
		c18.7279-8.861,43.8018-5.5526,46.7424,6.1717c1.1028,4.3918,0.1354,14.6844-2.225,23.8936
		c-0.7739,2.9408-0.0774,7.8937,1.6638,12.0919c2.6892,6.4232,3.676,7.1003,10.3893,7.1003c9.3641,0,15.1101-4.0049,17.8961-12.4982
		c2.457-7.41,13.8331-18.4764,18.9601-18.4378c7.2938,0.0581,12.0337,7.468,12.0337,18.7473
		c0,7.3132-2.3217,11.9564-21.9781,43.9951c-7.5067,12.2467-8.2806,16.2902-4.9141,25.9443
		c1.8573,5.3591,2.9794,6.0944,9.3252,6.0944c4.9916,0,9.5381-1.7799,14.8005-5.7654c9.422-7.1198,18.6312-7.7388,22.965-1.5477
		c6.8296,9.7316,2.3796,21.2817-15.7098,40.7062c-14.0653,15.1294-19.4437,30.9746-13.3301,39.255
		c2.4183,3.2891,5.2043,3.7727,21.7654,3.7727c18.8828,0,18.9988,0.0194,18.9988,4.7401c0,3.463-3.1536,7.3324-11.6082,14.2394
		c-22.8295,18.6699-29.5236,20.682-38.0944,11.4921L1636.6335,1206.2983z M991.1389,1180.3153
		c0.4643-3.3083,2.0895-4.6626,6.1136-5.127c4.7594-0.5419,5.3979-0.0388,4.8368,3.8694c-0.4643,3.3083-2.0895,4.6626-6.1137,5.127
		C991.2163,1184.7266,990.5778,1184.2235,991.1389,1180.3153z M872.8898,1160.4459c-5.0109-5.3398-4.179-10.7377,1.6445-10.7377
		c4.0435,0,11.8017,8.4353,11.8017,12.8271C886.3361,1166.8884,877.6685,1165.5342,872.8898,1160.4459z M1658.283,1158.5499
		c0-7.3906,19.4437-22.3073,25.8669-19.8501c4.2369,1.6252,4.0822,11.5309-0.2322,15.2649
		c-3.0181,2.6117-18.2249,7.3518-23.584,7.3518C1659.2115,1161.3165,1658.283,1160.0782,1658.283,1158.5499z M1005.4557,1121.5002
		c-4.0435-4.0436-3.8694-10.37,0.3483-11.6663c1.8573-0.5804,5.9976-2.1282,9.1898-3.4438c10.3506-4.2563,15.11-0.3483,11.376,9.364
		c-1.3156,3.4244-10.4667,8.8029-15.0133,8.8029c-1.5671,0-4.2176-1.3737-5.9008-3.0569V1121.5002z M1536.9189,1113.3165
		c-1.2961-0.8319-2.5925-3.6566-2.902-6.2684c-0.4644-4.3143,0.2321-4.798,7.8354-5.3591
		c4.6046-0.3289,9.6155,0.4449,11.1245,1.7025c3.6953,3.0569,3.5212,8.8416-0.2902,10.312
		c-4.2565,1.6252-12.9044,1.4122-15.7679-0.387H1536.9189z M892.1402,1092.4023c-6.5005-5.8815-7.7388-8.2031-7.7388-14.5103
		c0-6.9843,0.387-7.5067,5.572-7.5067c6.3265,0,7.9904,1.606,14.8005,14.433c3.8114,7.139,4.3918,9.809,2.6699,11.8984
		c-3.5018,4.1984-6.9456,3.231-15.3035-4.3143V1092.4023z M1646.6748,1073.2295c0-0.5417,2.283-4.4691,5.0883-8.7062
		c4.9916-7.526,11.1633-10.0798,12.8464-5.2623c1.4897,4.2563-0.8125,7.3132-8.4159,11.2019
		c-7.7388,3.9468-9.5187,4.4691-9.5187,2.7666H1646.6748z M1030.2782,1052.1993c-1.6832-4.4113,2.0121-8.1838,11.6663-11.8597
		c10.7764-4.121,19.2889-3.231,20.0436,2.0895c0.948,6.6166-6.2104,11.1826-18.9795,12.0919
		C1033.6445,1055.198,1031.2649,1054.7725,1030.2782,1052.1993z M1485.8042,1033.5293c-8.2224-8.6094-9.4026-14.2007-3.7146-17.2574
		c9.0544-4.8368,23.8744-0.2128,35.4438,11.0664c3.9855,3.8888,7.2551,7.584,7.2551,8.2225c0,2.3602-13.156,5.8041-22.2103,5.8041
		c-8.3967,0-10.0991-0.7932-16.7739-7.8356H1485.8042z M1040.4935,1021.244c-9.9639-3.6953-14.8585-8.4933-14.8198-14.5297
		c0.0194-3.9275,6.0168-10.6989,27.5695-31.11c47.0133-44.5756,53.4559-51.7339,50.6699-56.2612
		c-2.4764-3.9855-16.3676-0.5223-26.7764,6.6941c-5.4558,3.7726-21.2236,17.8766-35.0568,31.3422
		c-27.4535,26.7183-34.0701,31.7292-42.0024,31.7292c-6.7908,0.0193-8.4933-3.3664-12.1306-24.2032
		c-5.5139-31.6904-3.3663-48.5997,7.1584-55.9517c6.7908-4.7787,12.9625-3.5985,23.584,4.4692
		c13.9299,10.6022,16.9674,11.8597,28.7883,11.8597c13.6396,0,22.8683-5.8041,25.4027-16
		c1.4897-5.9396,0.6965-10.6602-4.5658-27.4728c-8.6675-27.6662-6.3845-32.1547,12.0725-23.7001
		c7.197,3.289,11.7823,6.9843,14.8778,11.9952c6.8682,11.1052,21.9783,15.7485,33.7606,10.37
		c4.3337-1.9734,5.4752-1.6252,9.6542,2.8827c5.4559,5.8815,10.2153,5.1463,11.9564-1.7993
		c0.6385-2.5345,0.1935-14.4523-0.9867-26.4861c-1.1608-12.0532-2.1282-25.9057-2.1282-30.8198
		c0-8.8222-0.0773-8.9189-7.4099-10.1765c-7.2164-1.1995-18.5538,1.9153-28.3821,7.7968
		c-13.8911,8.3386-27.0858,14.4523-29.3108,13.601c-4.2949-1.6638-3.1923-14.9165,1.7413-20.9141
		c4.0048-4.8367,35.0375-23.0037,58.8536-34.4377l9.9637-4.7787l0.6578-17.7025c0.7158-19.1343,3.8694-25.867,12.0725-25.809
		c7.797,0.058,9.3833,3.0375,12.0726,22.5006c1.8379,13.4269,3.5985,19.7921,5.9008,21.4946
		c2.0895,1.5284,10.0411,2.4183,21.9009,2.4183c27.0858,0,48.3483,7.6034,48.3483,17.3157c0,6.6553-5.2623,8.2031-34.3022,10.0991
		c-15.7098,1.0254-30.665,2.902-33.2189,4.1596c-8.6095,4.2177-11.9564,11.4341-15.8452,34.2443
		c-4.8562,28.4402-2.5151,43.4534,6.578,42.1572c6.4232-0.9286,8.7062-8.2418,10.0605-32.5223
		c1.3737-24.6675,3.3856-32.1741,9.035-33.9734c10.3893-3.2891,18.96,5.6494,19.0375,19.85
		c0.0194,4.0435,2.6118,16.058,5.7654,26.6989c4.682,15.8066,5.746,22.9263,5.7654,38.9262
		c0.0581,26.2927-1.1222,31.2648-8.474,35.7534c-7.5647,4.6046-29.6204,5.0689-37.9202,0.7739
		c-5.127-2.6505-15.4777-14.104-15.4777-17.1221c0-0.6965,8.2419-1.2575,18.3024-1.2575h18.3024l4.9141-8.3966
		c5.6687-9.6929,8.3192-28.4402,5.1462-36.5853c-1.1415-2.9407-2.8247-5.3204-3.7339-5.3204c-2.4957,0-6.1718,9.0931-6.1718,15.2648
		c0,7.9903-3.7727,17.4317-7.8162,19.5986c-1.9541,1.0447-9.035,1.9153-15.7485,1.9347
		c-23.2937,0.0967-34.4764,5.4946-34.4764,16.6965c0,4.7207,2.5345,7.7582,16.2129,19.5018
		c9.1898,7.8743,8.5707,11.8403-2.7279,17.4317l-8.7449,4.3531l-13.9493-3.8694c-17.4316-4.8174-40.6868-5.1463-50.0701-0.6965
		c-6.8296,3.231-12.3047,11.1439-12.3047,17.7799c0,3.4438,9.422,13.9492,18.3796,20.5078
		c5.1656,3.7727,2.5538,8.0097-9.5768,15.555c-10.9312,6.7908-28.3821,8.5707-40.3773,4.1403H1040.4935z M930.0219,1011.5124
		c-7.1197-6.1136-7.4293-6.8102-5.2624-12.0145c3.289-7.8743,31.6324-49.2769,35.347-51.5986
		c1.7025-1.0834,4.6432-1.3737,6.5199-0.6384c2.9407,1.1221,3.2891,3.0762,2.4377,13.5429
		c-1.2575,15.8259-4.3337,21.8235-15.0133,29.2914c-5.63,3.9468-8.8997,7.7582-9.2285,10.7763
		C942.6361,1020.5474,941.5333,1021.3601,930.0219,1011.5124z M1609.3158,1009.1521c-0.7352-0.7352-1.335-5.4752-1.335-10.5635
		c0-12.9432-2.0508-17.1028-14.4716-29.3301c-10.8151-10.6409-10.8923-10.7956-10.312-21.069
		c0.5417-9.4607,1.0255-10.3893,5.5332-10.9117c2.8634-0.3289,7.1779,1.1801,10.2153,3.5599
		c6.4038,5.0302,19.5985,24.1644,24.8223,35.9468l3.8113,8.6288l-6.5199,11.8791
		C1614.6362,1009.0167,1611.9083,1011.7639,1609.3158,1009.1521z M1460.7112,1002.8643c-4.5079-3.6372-4.5079-3.7339-1.1222-10.8536
		c4.7594-9.983,6.2297-22.8875,3.3665-29.7944c-2.5345-6.1136-10.0605-9.8477-19.7727-9.8477
		c-6.7908,0-18.9988,4.8561-18.9988,7.5647c0,3.3664,7.1198,5.9783,16.3096,5.9783c8.1644,0,8.8416,0.3676,8.8416,4.8948
		c0,7.5453-5.4365,14.4523-11.3567,14.4135c-6.4812-0.0388-9.4026-1.9347-13.5428-8.7835
		c-3.0182-4.9915-4.2565-5.4752-12.9238-5.0883c-7.0231,0.3095-11.647-0.7546-17.3157-4.0049
		c-11.0084-6.3265-10.8151-10.4281,1.1222-23.4873c8.3579-9.1318,10.0604-12.2274,10.2153-18.6119
		c0.1354-4.7593-1.0061-8.8416-2.9988-10.8536c-3.4438-3.4244-4.4692-3.4825-32.5225-1.6058
		c-17.006,1.1415-18.7085,0.9286-22.7327-2.8827c-3.4631-3.2697-4.3531-6.2491-4.3531-14.4523
		c0-21.4172-4.6819-29.5042-11.9177-20.5853c-2.5538,3.173-3.5599,7.6034-3.5599,15.8646c0,14.4909,3.8114,23.6807,11.9758,28.8077
		c5.6687,3.5792,8.8417,3.9661,27.6857,3.4438c21.069-0.5998,21.2817-0.5611,21.9202,3.9274
		c0.7932,5.572-5.8622,13.1367-14.8972,16.9093c-14.6263,6.1331-47.11,1.5477-53.4752-7.5453
		c-3.8307-5.4559-3.7921-34.786,0.0773-59.3567c1.5865-10.1185,3.8307-25.3446,4.9916-33.8573
		c2.3024-16.9286,5.6687-24.1838,11.2019-24.1838c6.5393,0,8.532,5.4946,10.3507,28.6336
		c1.8959,23.971,4.2175,31.8452,9.6735,32.9094c4.6626,0.89,7.8743-8.2999,6.3265-18.0121
		c-0.6771-4.2564-2.0121-16.445-2.9602-27.0859c-2.515-28.1887-3.7533-30.7618-16.7738-34.8633
		c-10.1378-3.173-11.9177-3.1923-29.7946-0.2322c-25.9442,4.3145-26.931,4.237-26.931-1.9347c0-2.8246,1.5284-6.3458,3.3857-7.8549
		c8.861-7.1391,17.1609-9.0544,44.8077-10.312c34.8827-1.5671,34.9988-1.6445,34.9988-27.2406
		c0-16.058,0.271-17.1996,3.9662-17.1996c5.4946,0,14.8778,5.127,17.1608,9.364c1.0255,1.9347,1.4124,8.2419,0.8513,14.0073
		c-1.1222,11.4921,2.2635,24.5514,7.0424,27.1633c1.5864,0.8513,15.0713,7.2938,29.9298,14.2781
		c14.8585,6.9843,29.0205,14.5684,31.439,16.832c5.1462,4.8368,5.6493,9.7122,1.3929,13.2334
		c-2.5151,2.0894-4.5273,1.7606-12.0919-1.9348c-15.9807-7.8162-29.6978-11.6856-41.3834-11.6856
		c-15.2455,0-19.7726,4.295-21.4751,20.3918c-0.6771,6.3265-2.6312,15.5938-4.3337,20.5853
		c-2.3602,6.9263-2.5925,10.0025-0.9674,13.0593c4.9529,9.2479,11.6857,2.2056,11.6857-12.1886
		c0-16.7352,6.9069-26.37,18.9214-26.37c10.4087,0,15.9032,4.4305,15.9032,12.8077c0,9.2866-2.9794,14.1041-10.7957,17.3543
		c-7.4293,3.1149-8.0483,4.8754-3.4244,9.5188c2.3796,2.3797,4.9722,2.8633,10.1378,1.896
		c9.8864-1.8573,13.2914-4.1016,16.8706-11.1632c6.4038-12.6917,9.9443-14.9359,23.4098-14.9359
		c15.3422,0,24.4933,3.6953,29.5237,11.9758c4.7594,7.7775,4.8755,11.5308,0.6964,22.4426
		c-4.3918,11.5115-1.3929,32.2902,6.0557,42.0798c4.6433,6.0943,5.9976,6.694,14.9746,6.694
		c9.7509,0,10.0217-0.1741,23.7388-14.5103c14.9552-15.6517,20.6047-17.8766,27.1246-10.6603
		c4.0242,4.4498,4.4304,13.8719,1.6638,38.4426c-2.0121,17.9154-4.5659,21.5527-15.1294,21.5527
		c-9.2672,0-31.3616-11.6857-48.4257-25.6155c-22.7909-18.5732-46.2782-29.2721-50.225-22.8682
		c-1.7993,2.8827,10.2732,15.3422,26.0411,26.873c34.4958,25.2479,41.538,33.7219,36.4498,43.9372
		c-2.012,4.0628-6.4426,6.6554-20.0049,11.7437c-19.8307,7.4293-29.4655,8.2031-36.0242,2.8827L1460.7112,1002.8643z
		 M1100.7402,989.0505c-7.0231-3.6953-10.7183-9.6542-8.3773-13.4656c1.3542-2.1669,22.4425-2.3217,29.9879-0.2128
		c5.9589,1.6638,7.139,6.6167,3.0375,12.8851c-3.9082,5.9396-14.2782,6.2878-24.6481,0.7932V989.0505z M1244.2565,929.7131
		c0-3.8307-11.1245-97.6251-12.5175-105.5188l-0.9286-5.3204h41.538c38.2878,0,41.5575,0.2515,41.5381,3.3857
		c-0.0194,2.8634-2.3602,28.3628-8.9576,97.7026l-1.2577,13.0593h-29.6976
		C1247.2552,933.0215,1244.2565,932.6732,1244.2565,929.7131z M1259.9663,909.1279c1.335-5.0109-1.0641-28.8658-3.2697-32.445
		c-0.5804-0.9479-2.8827-1.7025-5.1077-1.7025c-3.8501,0-3.9855,0.6965-2.8633,15.11c1.2961,16.9286,4.0822,26.2152,7.526,25.0544
		C1257.5286,914.7192,1259.1925,912.03,1259.9663,909.1279L1259.9663,909.1279z M1297.3835,912.2234
		c2.3796-6.2491,1.3737-35.85-1.2963-37.4946c-4.3918-2.728-6.3458,2.0508-7.4293,18.2249
		c-1.2382,18.8828-0.5803,22.6554,3.9855,22.6554C1294.5394,915.6091,1296.6677,914.0807,1297.3835,912.2234z M1277.8817,907.6188
		c0.6578-3.3277,1.1995-12.0919,1.1995-19.4825c0-12.8271-0.1935-13.4075-4.3531-12.8077c-4.1016,0.5804-4.353,1.5091-4.353,16.0968
		c0,15.6517,1.335,22.2491,4.5272,22.2491C1275.8696,913.6744,1277.2046,910.9465,1277.8817,907.6188z M1510.6846,916.325
		c-2.1667-2.1669-1.6058-26.5828,0.7739-33.3737c3.5406-10.1572,13.9685-13.1559,21.069-6.0363
		c5.0303,5.0109,4.9142,11.6856-0.3094,18.3217c-2.283,2.9214-5.9976,8.9189-8.2225,13.3108
		c-3.8113,7.5647-9.9443,11.1439-13.3108,7.7775H1510.6846z M1029.814,904.2911c-5.0883-5.0689-6.9648-20.9722-3.173-26.7376
		c2.283-3.4824,4.7207-4.5078,10.6797-4.5078c6.6166,0,8.2805,0.89,11.6663,6.2878c4.624,7.3906,4.0629,18.9601-1.2382,24.8029
		C1043.4923,908.8571,1034.438,908.9344,1029.814,904.2911z M1110.8394,859.6188c-3.3663-6.2878-2.2828-11.2793,3.9855-18.4377
		c13.9299-15.8646,28.15-0.5417,16.2903,17.5477C1127.1295,864.8231,1113.9155,865.4036,1110.8394,859.6188z M1252.9628,777.2584
		c-9.5768-4.682-19.7533-10.5054-22.5973-12.9625l-5.1851-4.4305l-1.335-58.254l-1.3542-58.2346l4.6046-1.5091
		c2.515-0.8319,23.5453-1.9153,46.7231-2.399c36.5852-0.7932,42.7568-0.5031,46.9165,2.2249l4.7787,3.1342v55.6033v55.5841
		l-15.3035,10.0217c-17.2189,11.2793-33.6251,19.9855-37.3591,19.8307c-1.3542-0.058-10.312-3.9274-19.8888-8.6094V777.2584z
		 M1413.8721,770.0226c-3.3663-4.4885-5.1077-10.0024-6.0557-19.231c-2.5538-24.8029-12.7689-37.0883-30.9746-37.2624
		c-15.8452-0.1548-19.2115,4.0048-19.9468,24.6094c-0.3094,8.7448-0.9674,17.7799-1.451,20.0629
		c-1.0061,4.7593-5.6493,7.081-10.8536,5.4365c-3.4052-1.0834-3.5985-4.4111-3.5985-63.7679v-62.6457l-4.3531-3.0762
		c-2.3989-1.7026-10.4474-5.0109-17.896-7.3712c-11.8403-3.7339-17.8186-4.2757-47.4001-4.2757
		c-36.0436,0-47.8066,2.1669-58.8925,10.8924l-4.9529,3.8888l-0.0387,61.2914c0,33.7026-0.7932,62.4909-1.7219,63.9613
		c-1.1415,1.7993-3.405,2.2637-6.8682,1.393c-6.9648-1.7606-10.7183-11.2986-10.7183-27.2213
		c0-10.0605-0.7931-13.4268-3.8694-16.503c-5.6106-5.6107-21.8428-5.3011-33.0448,0.6191
		c-9.8669,5.2238-12.5175,10.8924-14.3942,30.7812c-2.0314,21.6107-12.0725,27.8597-17.5865,10.9698
		c-1.3737-4.179-3.3856-58.7183-5.4945-148.7787l-3.347-142.2007l-8.6675-48.3676c-6.1135-34.1088-9.6348-49.2769-11.9177-51.4631
		c-1.7992-1.7025-38.5006-34.8634-81.6058-73.6928c-56.1064-50.5538-87.3132-80.2902-109.9299-104.7642l-31.5744-34.1746
		l-9.0544-0.1393c-4.9722-0.0774-25.3446-0.7913-45.2527-1.5845l-36.2177-1.4452l-16.387-8.118
		c-11.7437-5.8196-20.8948-12.3589-32.3096-23.0849c-17.451-16.3889-30.7618-32.1548-30.7618-36.4189
		c0-2.3139,16.1935-2.7279,106.8924-2.7279c117.8041,0.0019,110.8972-0.6268,136.5901,12.4498
		c23.081,11.7553,28.5369,31.6363,19.2504,70.4c-3.8888,16.2921-4.0435,18.5364-1.451,23.141
		c4.2757,7.6034,101.514,83.1729,110.4909,85.8622c9.7703,2.9214,12.2273,1.6832,33.5479-17.0641
		c16.9867-14.9166,52.0627-41.4994,67.8694-51.4438c15.8646-9.9637,19.231-15.0907,28.6337-43.5212
		c10.6796-32.3231,16.8899-54.7076,15.6904-56.6385c-2.8247-4.5717-15.2455-7.7079-30.5298-7.7079
		c-13.4656,0-16.6577-0.5746-17.6638-3.1787c-0.6578-1.749-0.9673-3.4283-0.6578-3.7301c0.2903-0.3038,13.6011-1.1337,29.543-1.8418
		c28.8851-1.2846,43.5115-3.4883,43.5115-6.5548c0-2.9098-14.046-3.6779-43.5309-2.3797
		c-25.5381,1.126-30.1813,1.8573-38.6941,6.0963c-9.3832,4.6704-9.6929,5.096-10.2539,14.0073
		c-0.9479,14.7483-3.5985,10.6138-4.9528-7.7388c-2.5925-35.1478,10.4667-74.784,28.2274-85.6068
		c6.7908-4.1422,27.3373-5.5216,29.5236-1.985c0.6384,1.0389,1.6638,6.1485,2.283,11.3528
		c1.064,8.9635,2.0314,10.2965,18.3215,25.1686c25.4027,23.1894,30.2395,23.2164,49.451,0.2612l12.1306-14.4871l16.9674-0.9674
		c15.7678-0.8996,16.9867-1.273,17.5671-5.3204l0.6191-4.3531h-52.3724h-52.3724v-5.5894c0-3.0742,1.5283-7.4254,3.3857-9.6677
		c3.2697-3.936,5.0109-4.0795,50.7859-4.184c43.3374-0.0991,48.561,0.2513,60.9432,4.0834
		c7.4485,2.3042,17.4896,6.1852,22.3071,8.623l8.7643,4.4305l13.1947,87.7311c7.2745,48.2515,13.6783,90.1939,14.2394,93.1927
		c0.7932,4.1403,6.965,10.1959,25.4414,25.0157c13.4269,10.757,31.6323,25.9444,40.4934,33.7799
		c8.861,7.8162,19.5211,16.4837,23.6807,19.2503l7.6034,5.0302l9.2092-4.6433c13.2527-6.6747,104.6288-78.6264,107.9177-84.9915
		c2.4572-4.74,2.3411-7.023-1.1415-20.504c-8.1451-31.5047-6.907-48.89,4.3724-61.7325
		c6.6554-7.586,14.1427-11.8617,33.5284-19.1613l12.9819-4.8832h106.1765c58.3894,0,106.1765,0.652,106.1765,1.451
		c-0.0387,4.4053-10.4087,17.2382-27.9951,34.5944c-15.613,15.4099-23.0422,21.1695-34.7279,26.9427
		c-14.3555,7.1004-15.7679,7.3944-42.3313,8.8145c-15.1101,0.8068-35.9081,1.5246-46.2008,1.5923l-18.7279,0.1238l-32.5417,34.9485
		c-22.9648,24.6675-56.3192,56.3966-113.3156,107.763c-44.4209,40.0484-81.1415,74.1572-81.6252,75.8017
		c-1.0834,3.7146-9.4993,48.9287-13.6202,73.1125c-2.225,12.9819-3.7727,46.8391-5.7074,123.821
		c-1.451,58.2733-2.225,108.595-1.7219,111.8259c0.5225,3.231,0.0194,23.1584-1.1222,44.3047
		c-2.3022,43.4147-3.0568,45.601-15.8645,45.601c-6.0364,0-8.1838-1.1415-12.0532-6.2878L1413.8721,770.0226z M1484.1599,670.3854
		c-15.2261-7.6227-21.069-17.1414-23.1392-37.6106c-1.9928-19.676-0.2128-127.0714,2.1863-131.676
		c3.173-6.1717,10.3506-4.1596,13.8524,3.8694c3.8694,8.8416,6.9843,22.5006,7.0618,30.8972
		c0.0581,9.6349,17.1028,65.9541,23.7582,78.5103c3.2697,6.1718,12.3047,19.6566,20.1016,29.9879
		c13.6591,18.1088,14.0073,18.8634,10.4281,21.8622c-3.5599,2.9987-16.6771,6.1717-34.902,8.4352
		c-7.0424,0.8707-10.757,0.0387-19.347-4.2757L1484.1599,670.3854z M1041.1127,672.4362
		c-10.6796-1.7993-25.1511-6.636-25.1511-8.416c0-1.0447,6.0363-10.0798,13.4269-20.0822
		c7.3712-10.0024,16.0194-22.8295,19.1923-28.5175c7.5453-13.4849,21.1075-59.4922,24.5126-83.1342
		c1.4705-10.2346,4.121-22.2104,5.8815-26.6022c2.6893-6.7521,4.0436-7.971,8.7449-7.971c4.4305,0,5.8429,1.0834,7.0037,5.3204
		c0.7932,2.9214,1.451,35.7921,1.4897,73.0351c0.0387,66.4377-0.0387,67.85-4.2758,75.4534
		c-6.5393,11.7437-8.861,14.0847-18.1282,18.283c-8.0676,3.676-20.4885,4.6627-32.6965,2.6312H1041.1127z M964.6919,652.1992
		c-3.1923-1.1802-8.6288-4.2564-12.0919-6.8295c-10.0217-7.4679-8.7255-13.0786,6.4039-27.6856
		c6.9843-6.7328,15.3616-16.116,18.6119-20.8367c12.9432-18.8247,33.2769-67.8113,38.3458-92.3628
		c1.3156-6.3845,4.4112-15.6324,6.9069-20.5465c12.3821-24.5127,34.4958-25.7122,38.5007-2.0894
		c0.7158,4.3144-0.8319,20.4691-3.8694,40.0871c-4.1984,27.0859-6.8102,37.4172-14.8392,58.9698
		c-16.3483,43.821-25.0157,58.4861-39.6614,67.0568c-9.6735,5.688-28.711,7.7775-38.3071,4.2371L964.6919,652.1992z
		 M1558.646,650.7288c-16.7158-7.7582-27.0858-23.9904-44.2467-69.2624c-9.364-24.7449-18.6311-70.9456-18.6311-92.9819
		c0-17.4704,6.7133-25.48,19.0955-22.7521c10.3314,2.2636,25.2478,23.1971,25.3639,35.5986
		c0.1161,13.2914,26.9117,78.0459,40.2418,97.2575c3.2115,4.6433,11.5889,14.1813,18.6119,21.1851
		c7.0229,7.0229,12.7689,14.2975,12.7689,16.1548c0,4.8948-10.7375,14.2007-19.0182,16.503
		c-10.8923,3.0181-25.6155,2.283-34.1862-1.7025L1558.646,650.7288z M888.9289,615.8461
		c-11.26-6.8682-10.4667-9.8282,8.3773-31.3422c9.4026-10.7183,18.9794-21.8428,21.2817-24.7061
		c8.6094-10.7183,29.1946-48.3482,38.9843-71.2358c17.0641-39.8936,21.3978-45.0206,38.0943-45.0206
		c11.8598,0,13.3882,3.4244,11.9758,26.9504c-1.3736,22.9456-7.0424,40.2418-24.4353,74.5828
		c-21.4365,42.2926-36.3337,61.1559-55.2358,69.9589C915.415,620.8763,897.7705,621.2439,888.9289,615.8461z M1627.1732,614.8013
		c-17.7219-9.2285-34.3992-31.4196-55.797-74.1572c-14.162-28.2853-21.2043-50.5538-22.694-71.7969
		c-1.451-20.3724,0.8706-25.3059,11.9177-25.3059c17.1996,0,20.6046,4.0049,38.7134,45.4655
		c6.5006,14.8972,15.3229,32.7352,19.6179,39.6614c4.2758,6.9069,10.0219,16.4836,12.7305,21.2817
		c2.7279,4.7787,14.1814,19.1149,25.4606,31.8452c11.2793,12.7303,20.5078,23.7388,20.5078,24.4547
		c0,0.7352-3.0762,4.0435-6.8295,7.3325c-6.3459,5.5526-7.8937,5.9976-20.7981,5.9202
		c-10.8344-0.0774-15.9613-1.1221-22.8295-4.7013L1627.1732,614.8013z M1691.2893,584.4652
		c-9.0737-2.6312-11.6276-4.6433-22.8102-18.0701c-11.5695-13.9105-19.5791-26.2733-38.0361-58.757
		c-15.7485-27.7437-16.9868-30.5683-22.4039-50.5151c-4.3337-15.9613-4.9916-27.3374-1.9154-33.0641
		c2.8248-5.3011,12.9045-4.8174,21.4752,1.0061c7.7582,5.2624,24.6094,29.6977,35.6372,51.6179
		c11.1826,22.2491,17.1029,29.7751,45.717,58.1378c15.942,15.8066,26.7183,27.9952,26.7183,30.2201
		C1735.6714,577.3455,1708.1986,589.36,1691.2893,584.4652z M838.0655,581.0021c-5.8041-2.0121-11.6856-5.185-13.0593-7.0811
		c-5.9976-8.1838-3.4824-12.324,25.0544-41.4026c27.8597-28.3434,28.8078-29.6397,53.3204-73.0351
		c15.2455-27.0278,28.7497-39.7969,40.919-38.7715c6.3071,0.5224,6.8875,1.1415,8.0484,8.2805
		c1.4703,9.1898-5.7461,41.2672-12.0919,53.7461c-5.127,10.0798-23.1198,41.5381-31.2455,54.636
		c-12.2274,19.6953-30.8585,41.9637-37.3978,44.7111C862.8298,585.7421,850.6798,585.3552,838.0655,581.0021L838.0655,581.0021z
		 M778.9216,547.3575c-6.4619-2.9407-17.4123-14.549-20.8561-22.0944c-2.0314-4.4498-1.5477-5.4559,5.4752-11.5696
		c4.2177-3.6759,12.0339-8.8996,17.335-11.6082c12.9238-6.578,32.5804-25.867,52.8174-51.7727
		c24.6288-31.5743,44.8077-54.5587,52.6627-59.9951c9.4607-6.5587,16.3289-6.3846,18.9407,0.503
		c7.7002,20.2177,4.3531,33.1608-16.5804,64.0774c-24.4547,36.1403-47.1487,65.9347-57.422,75.4148
		C814.849,545.4614,791.4971,553.0649,778.9216,547.3575L778.9216,547.3575z M1748.6919,545.2681
		c-14.8778-6.1331-25.9443-15.5163-40.7836-34.6312c-18.0315-23.2164-51.2502-71.7968-55.526-81.1995
		c-4.1403-9.1511-4.9529-26.428-1.6832-35.8307c6.4426-18.4764,24.3966-4.3918,72.2612,56.7062
		c20.8561,26.6215,36.7206,42.5635,50.4377,50.6506c16.5803,9.7896,26.1184,17.7993,26.1184,21.9008
		c0,5.2818-11.6082,19.3857-19.3082,23.4874C1771.2312,551.1303,1762.1962,550.8207,1748.6919,545.2681L1748.6919,545.2681z
		 M566.1429,514.1193c-67.9662-3.6759-87.2938-7.0036-131.5598-22.578c-38.3459-13.4849-76.4208-34.1475-76.4208-41.4607
		c0-2.2636,23.1971-2.6699,146.7279-2.6699h146.7473l11.4147,7.3906c15.0327,9.7122,28.0919,24.4933,36.5272,41.364
		c11.26,22.5393,14.4523,20.9335-41.0544,20.624C632.1937,516.6345,590.6169,515.4349,566.1429,514.1193z M1849.819,514.5836
		c0-1.3736,3.0375-8.8222,6.7521-16.5804c7.3906-15.4002,23.0811-33.393,37.4365-42.8924l8.7062-5.7654h149.088h148.9724
		l-5.6108,5.8815c-7.3521,7.5067-31.342,21.3978-49.7217,28.653c-38.1138,15.11-71.0037,23.6227-105.0546,27.2406
		c-54.7521,5.8041-190.5684,8.2805-190.5684,3.4631H1849.819z M726.0462,496.6876c-5.9782-5.0495-17.6445-22.8682-17.6832-27.0278
		c0-1.0641,4.5466-4.4692,10.1379-7.5453c12.0338-6.636,42.6409-27.9952,64.3289-44.8851
		c16.9867-13.2527,25.7123-21.9589,36.5466-36.4692c8.3579-11.2213,23.8742-23.4486,32-25.2285
		c3.1536-0.6965,7.5647-0.2515,9.8477,0.9673c3.7147,1.9734,4.0241,3.2697,2.844,12.2274
		c-2.844,21.9589-17.006,41.8477-63.2842,88.8416c-31.555,32.0387-45.3688,42.2152-59.1632,43.5309
		C733.6303,501.8727,731.4828,501.2536,726.0462,496.6876L726.0462,496.6876z M1803.6763,498.603
		c-11.0664-4.7981-29.2914-20.7014-54.5586-47.5937c-43.0665-45.8525-53.7268-61.4462-55.5261-81.2769
		c-0.9673-10.7763-0.8125-11.2986,4.1597-13.1947c10.5248-3.9855,26.7377,7.4873,47.0327,33.3156
		c11.4148,14.5103,35.7533,34.1282,73.3253,59.0858c13.9299,9.2672,26.9504,17.7799,28.9044,18.9214
		c3.3857,1.9734,3.3085,2.5345-1.6444,10.9891c-2.8827,4.8948-8.1644,12.0145-11.7437,15.8258
		c-5.572,5.9008-7.7195,6.8875-14.994,6.8295c-4.6625-0.0387-11.3954-1.3543-14.9552-2.9021L1803.6763,498.603z M1072.0873,462.2692
		c-7.7001-16.9673-9.6154-18.283-20.9335-14.2201c-14.4908,5.185-16.6191,4.4885-30.2588-9.7703l-12.4208-12.9819l-14.162-0.7545
		c-15.6904-0.8513-19.1149-2.8053-24.9576-14.2394c-4.0242-7.8742-4.7013-8.2032-24.0097-11.4147
		c-7.4486-1.2382-14.9359-3.4631-16.6191-4.9529c-1.7026-1.4703-4.1596-7.4292-5.4365-13.214
		c-2.6312-11.7437-2.5731-11.705-21.9395-13.601c-7.1777-0.6965-13.4849-2.0121-14.046-2.9021
		c-0.5417-0.89-1.5478-6.8488-2.2056-13.2527l-1.2189-11.6275l-14.1813-1.335c-7.7969-0.7158-15.6904-2.4184-17.5478-3.7727
		c-1.838-1.3543-5.243-7.5647-7.5647-13.8138l-4.237-11.3374l-11.763-0.9673c-7.081-0.5804-13.0012-2.2056-14.8392-4.0629
		c-1.7606-1.7412-3.9661-9.2866-5.127-17.4123c-2.8441-20.0048-4.682-22.3265-18.9408-23.9903l-11.6856-1.3543v-11.26
		c0-12.5369-1.2576-17.3736-4.5659-17.393c-4.9142-0.0193-16.7546-4.179-19.3664-6.7908
		c-2.0895-2.0701-2.5151-5.7654-1.7413-14.4135l1.0641-11.6469l-11.3954-5.127c-12.8271-5.7654-18.1669-9.7509-18.1669-13.5816
		c0-2.1282,11.6663-2.5732,64.3289-2.4764l64.3289,0.1161l111.2455,101.8428l111.2455,101.8428l1.1995,11.705
		c0.6384,6.4426,3.8307,24.3192,7.0616,39.7582c6.6554,31.8646,6.4813,40.6288-0.8706,40.6288
		c-3.9275,0-5.6687-2.0508-10.2732-12.2274L1072.0873,462.2692z M1469.9786,473.2003c-2.8634-2.8633-0.948-19.347,5.4752-47.3422
		c3.7146-16.2322,6.8296-32.5998,6.9069-36.3918c0.1355-6.578,5.0884-11.3954,111.7292-108.8851l111.5936-101.9976l63.2455-0.058
		c43.8212-0.0387,63.6519,0.5997,64.561,2.0701c1.9154,3.1149-3.0955,7.3132-16.8899,14.104l-12.2467,6.0363l0.5804,12.6723
		c0.6384,14.2588-0.6385,15.7678-16.0581,18.8247l-7.7388,1.5478l-1.6252,13.8525l-1.6251,13.8525l-9.0157,1.2189
		c-17.1802,2.341-18.2249,3.734-20.7787,27.4728c-0.7739,7.0617-2.5344,13.0786-4.2563,14.5103
		c-1.6058,1.3543-8.6868,2.8827-15.6904,3.4244c-10.873,0.8126-12.8464,1.5284-13.3302,4.8368
		c-0.3289,2.1282-2.4377,7.9903-4.7013,13.0593c-4.6046,10.2539-10.312,13.0205-26.931,13.0399
		c-10.0798,0.0193-11.2793,1.7993-11.3373,16.8319c0,4.4498-0.8513,8.6094-1.8574,9.2479
		c-1.0254,0.6191-8.8804,2.1669-17.4896,3.4244l-15.6324,2.2636l-3.0375,10.7182c-1.6638,5.9009-4.2758,12.0339-5.7848,13.6203
		c-1.5283,1.6058-9.7703,3.8694-18.6506,5.1463c-16.6383,2.3797-16.2902,2.1475-25.2672,16.1548
		c-4.1788,6.5393-4.8174,6.7908-18.8246,7.7969c-15.7871,1.1221-20.9335,3.7533-29.0593,14.8779
		c-2.5731,3.5212-7.6034,8.2418-11.1632,10.5054l-6.4812,4.1209l-10.4668-4.3337c-5.7654-2.399-11.8209-3.8307-13.4462-3.2116
		s-4.3143,4.4111-5.9589,8.416c-7.0811,17.1995-8.8417,19.8694-13.1754,19.8694
		C1473.1903,474.4966,1470.675,473.9162,1469.9786,473.2003L1469.9786,473.2003z M672.1647,443.6187
		c-7.6421-4.6627-12.6142-13.8525-11.821-21.8235c0.4837-4.7787,1.7993-6.3845,6.4039-7.7968
		c11.6856-3.5792,35.4438-13.7364,59.9758-25.6542c24.9964-12.1499,28.7884-14.8779,63.3229-45.6203
		c7.1584-6.3845,15.439-12.8464,18.3797-14.3942c18.6312-9.7122,24.6868,6.4813,10.0411,26.9311
		c-10.1765,14.2007-68.5272,60.9819-98.6505,79.0907c-19.2697,11.5695-22.8489,13.0592-31.5937,13.0399
		c-6.3652,0-12.0532-1.335-16.058-3.7727L672.1647,443.6187z M1845.9109,440.0588c-20.6626-12.0919-41.0737-26.4474-66.1669-46.549
		c-42.1379-33.7219-54.9843-50.9795-47.8645-64.2515c4.0822-7.6421,15.2455-3.3857,33.7412,12.8464
		c6.4038,5.63,17.7412,15.555,25.1898,22.075c9.7123,8.5127,20.6433,15.3228,38.6941,24.1645
		c30.8392,15.0713,57.4608,26.1765,62.7618,26.1765c3.4052,0,3.9855,1.1995,3.9661,8.2225c0,9.1125-4.8948,18.1282-11.9564,22.0363
		c-2.4572,1.3737-9.2672,2.5151-15.1488,2.5538C1860.2084,447.3914,1856.4164,446.2112,1845.9109,440.0588L1845.9109,440.0588z
		 M327.2071,426.9803c-6.9263-1.4897-18.6699-5.8428-26.1378-9.6542c-15.5163-7.9709-49.6058-31.613-50.786-35.2116
		c-0.6191-1.9347,35.4825-2.4184,176.1741-2.4184h176.9481l6.8875,8.2225c3.792,4.5078,12.208,13.8718,18.6893,20.7787
		c7.7582,8.2612,11.6082,13.8912,11.2406,16.445c-0.5611,3.8501-1.954,3.8888-150.5006,4.2177
		C367.4102,429.6308,337.461,429.1858,327.2071,426.9803z M1917.5337,425.181c0-3.3857,5.301-10.5442,17.896-24.1645l17.896-19.347
		l177.4124-0.0193c97.7026-0.0193,177.606,0.3869,177.606,0.89c0,0.503-9.2866,7.526-20.7012,15.613
		c-23.4099,16.5224-43.144,26.5635-58.2346,29.717c-6.9648,1.4317-59.2019,2.1282-160.9673,2.1282h-150.9069v-4.8174H1917.5337z
		 M636.2373,389.3696c-6.3652-5.0109-10.2539-12.0339-12.0919-21.8041c-1.2382-6.5393-0.89-7.3325,3.8307-9.1318
		c2.844-1.0834,9.0931-1.954,13.8912-1.954c20.0048,0,71.7001-23.971,98.9794-45.8912
		c16.0193-12.8851,35.8887-23.7581,43.3761-23.7581c7.0811,0,7.3132,0.2128,7.3132,6.8488c0,8.6094-5.0689,18.6312-15.3616,30.2975
		c-12.0338,13.659-58.8344,46.5877-82.7086,58.1959c-18.902,9.1705-22.1717,10.1572-36.3144,10.757
		C643.5118,393.5099,640.9387,393.0649,636.2373,389.3696L636.2373,389.3696z M1862.2399,381.8436
		c-30.7618-15.1874-74.5829-47.5357-86.6941-63.9807c-13.3882-18.1862-14.3942-31.0327-2.4572-31.0327
		c6.4812,0,12.6724,3.5985,53.8041,31.2455c38.6941,26.0218,63.381,36.7401,91.6083,39.8162
		c12.2853,1.3543,13.601,1.9153,14.2007,6.0943c0.948,6.7328-5.0494,20.8754-10.7375,25.364
		c-4.0436,3.1729-7.8549,3.8888-20.7981,3.8888C1885.7272,393.239,1884.7017,392.9294,1862.2399,381.8436L1862.2399,381.8436z
		 M250.496,360.291c-18.2056-1.9153-24.7449-4.1596-49.6638-16.9867c-22.576-11.6276-30.3362-18.6892-30.3362-27.6082v-5.6494
		h198.2878H567.091l5.9976,8.2225c3.2891,4.5079,8.0291,12.1886,10.5054,17.0641c2.4764,4.8561,7.6422,10.9504,11.4728,13.5429
		c4.6821,3.1729,6.7715,5.9589,6.4233,8.5707c-0.5223,3.8307-2.0702,3.8694-168.8416,4.0822
		C340.0728,361.6646,258.0995,361.1036,250.496,360.291L250.496,360.291z M1956.2278,357.6018c0-3.231,2.0314-5.9396,6.578-8.7449
		c3.676-2.3023,8.3192-7.6421,10.4475-12.2467c2.1281-4.5078,6.578-11.8984,9.8669-16.4063l5.9976-8.2225h199.4679h199.468
		l-1.1606,5.3204c-0.7742,2.9214-2.9021,7.4873-4.8369,10.1572c-5.2236,7.1971-48.7544,28.6336-65.0059,31.9807
		c-11.2214,2.2829-44.1116,2.7666-187.2795,2.8053l-173.543,0.0387V357.6018z M1908.2472,337.8678
		c-13.098-3.2116-52.7014-22.4619-70.0364-34.0508c-5.8622-3.9081-16.9867-12.9238-24.7642-20.0435
		c-13.9299-12.7497-14.1233-13.0399-13.543-21.6687c0.8513-12.7303,4.179-13.9879,19.2504-7.2745
		c26.4668,11.8017,33.8767,15.497,41.7703,20.8174c15.4584,10.428,33.3737,16.4643,66.9601,22.6167
		c17.9348,3.289,34.3411,5.9782,36.4691,5.9782c3.2891,0,3.8695,0.89,2.9021,5.688c-2.3217,11.0278-6.7715,18.9988-13.9879,24.474
		c-6.0555,4.6239-9.364,5.6106-20.0435,5.9782c-7.0424,0.2515-18.2637-0.8706-24.9769-2.5151L1908.2472,337.8678z M605.611,334.6369
		c-6.6941-4.5272-13.8525-15.6324-16-24.8996c-1.1801-5.0689-0.9867-5.185,12.8077-7.4099
		c55.3519-8.8803,75.2987-14.6844,93.6203-27.2986c9.3833-6.4619,50.0701-24.9577,54.8682-24.9577
		c4.9528,0,7.7388,4.1209,7.7388,11.4921c0,5.9976-1.838,8.6094-14.7618,21.1076c-17.7413,17.1028-30.8779,25.8283-61.6591,40.9384
		c-26.5441,13.0399-34.7859,15.3422-55.3325,15.4002C614.7234,339.048,611.0475,338.2935,605.611,334.6369L605.611,334.6369z
		 M179.2023,287.8364c-19.9971-5.9202-31.9362-11.1052-42.8034-18.5925c-9.0815-6.2491-16.1857-15.7292-16.1973-21.6106
		c-0.0077-3.2116,10.9969-3.3664,212.2564-2.9021l212.2563,0.503l4.3531,6.4619c5.0303,7.4486,12.1306,25.4801,13.6396,34.6506
		l1.0447,6.2878l-184.532-0.1161l-184.5321-0.0967l-15.4776-4.5852H179.2023z M1992.9873,291.8993
		c0-3.6179,11.0278-32.9867,14.7036-39.4099l4.8368-8.2225h212.6241c155.1631,0,212.8174,0.5804,212.8174,2.1475
		c0,5.5913-9.4802,17.9154-18.5732,24.2031c-5.6106,3.8694-19.9275,10.3313-32.116,14.4909l-21.8623,7.4873l-186.312,0.0193
		c-102.3459,0-186.1185-0.3095-186.1185-0.7158H1992.9873z M594.3124,277.2149c-17.0447-9.6155-23.3325-17.335-23.3325-28.711
		v-5.6106l23.7001-1.0834c36.4885-1.6638,70.4039-10.1572,103.6615-25.9444c12.2466-5.8235,20.0435-8.3966,24.1838-7.9903
		c5.8622,0.5611,6.1523,1.006,6.7328,9.9057c0.8513,13.3494-5.9008,24.1258-20.8174,33.1802
		c-30.1426,18.3216-60.6917,29.0206-88.8029,31.0907C605.7078,283.0963,604.2181,282.8062,594.3124,277.2149L594.3124,277.2149z
		 M1917.7466,279.9622c-19.8888-4.3144-30.8391-8.416-53.0109-19.8307c-23.2552-11.9565-32.8319-20.7981-36.2371-33.4317
		c-5.3204-19.734,2.5538-23.2164,26.7957-11.8017c37.6106,17.7025,66.5345,25.1125,105.7703,27.1245l25.1511,1.2769l-0.1935,6.191
		c-0.5803,10.1572-7.5453,19.2503-20.8948,26.6796C1951.275,283.8896,1940.015,284.7989,1917.7466,279.9622z M1942.6849,225.6163
		c-42.8149-11.2987-83.6759-27.5695-86.2684-34.3216c-0.5225-1.3543-0.0581-4.7981,1.0061-7.6421l1.9734-5.1657h77.6976h77.7556
		l-0.9673,13.6977c-1.1608,15.9033-7.5454,26.9311-18.9601,33.006c-8.3192,4.4498-36.1403,4.682-52.2371,0.4256L1942.6849,225.6163z
		 M2022.0078,226.4482c0-1.3736,5.4172-12.5175,12.1887-24.7449l11.9951-22.2491l216.1062-0.503
		c176.832-0.4063,216.3-0.0193,216.3,2.0314c0,4.5466-18.573,23.468-29.6011,30.0459c-5.804,3.5212-17.0254,8.7449-24.9578,11.6082
		l-14.1233,5.185l-194.051,0.5611c-157.2915,0.445-193.8572,0.0774-193.8572-1.9347H2022.0078z M140.0827,223.8751
		c-17.9076-4.8174-37.2914-16-50.2907-29.0012c-6.6902-6.6941-12.1654-13.1173-12.1654-14.2975
		c0-1.5284,60.5911-1.9734,217.1705-1.6252l217.1705,0.503l12.208,23.7001l12.208,23.7001l-193.1028-0.1354
		c-159.4989-0.0967-194.8634-0.5998-203.2019-2.844L140.0827,223.8751z M557.4951,221.7663
		c-8.3192-7.0036-13.4268-17.896-14.8779-31.6518l-1.1995-11.6276h78.4136c69.7267,0,78.549,0.3289,79.5937,3.0568
		c2.2829,5.9395,1.1221,10.2346-3.792,14.104c-6.2684,4.9335-33.6639,15.4583-63.3422,24.3579
		c-20.5853,6.1717-25.1125,6.8488-45.7944,6.8488C564.5374,226.8545,563.2798,226.6224,557.4951,221.7663L557.4951,221.7663z
		 M514.8348,150.8594c-6.9456-2.3661-18.2636-8.3405-25.1512-13.2779c-14.607-10.4551-36.6433-32.7584-41.3059-41.8109
		l-3.2503-6.2878h113.0448H671.217l6.0556,10.7357c6.7715,11.9952,30.8586,38.1466,42.6989,46.3497
		c4.237,2.9427,7.7195,6.104,7.7195,7.023c0,0.919-45.0593,1.6484-100.1209,1.6213
		C529.2291,155.1641,527.217,155.0867,514.8348,150.8594L514.8348,150.8594z M1834.3417,149.9868
		c14.2008-10.6796,39.7969-38.4832,45.4849-49.3756l5.7848-11.1187l112.7932-0.0058c93.2527-0.0039,112.5996,0.445,112.5996,2.608
		c0,7.406-28.6335,36.7826-47.9807,49.1299c-22.4425,14.3884-19.347,14.0479-133.3591,13.9473l-102.0944-0.0909l6.7715-5.0941
		H1834.3417z M124.0634,150.4395c-38.075-7.644-72.6597-32.1761-78.4329-55.6363l-1.3094-5.3204h182.0111h181.9976l7.1004,6.2394
		c3.9081,3.4302,13.0399,13.334,20.2757,22.0073c7.2551,8.6733,18.4184,19.5792,24.8416,24.2341
		c6.4039,4.6549,11.6663,9.1144,11.705,9.9134c0.0387,0.7971-75.4728,1.3698-167.7775,1.2692
		c-129.7238-0.1412-170.6912-0.7545-180.4111-2.7066H124.0634z M2088.5618,148.9034c12.3821-9.5207,24.1838-20.1248,29.2139-26.5306
		c3.0955-3.7243,11.2214-12.6491,18.1863-19.8307l12.5757-13.0592h181.4753h181.4753v4.0609
		c0,17.7316-30.9553,43.0085-67.7148,55.2281c-9.8669,3.3141-21.8621,3.5695-185.7314,3.9778l-175.0908,0.4353l5.6108-4.2815
		H2088.5618z M1236.5181,50.7887c-7.2939-7.3016-2.5538-18.2849,8.8804-20.4866c10.486-2.0237,17.7411,10.1785,11.6082,19.5328
		C1252.963,55.995,1242.2255,56.4942,1236.5181,50.7887z"/>
	<path fill="gold" d="M1363.0931,1204c40.095-6.3896,96.5059-15.8962,176.0116-22.8521c-79.5057,6.9558-136.7103,7.3893-177.3058,8.0592
		c38.3762-13.2549,92.2795-32.4127,169.3693-53.0688c-145.8615,39.0834-217.1792,41.3164-243.8545,58.4526
		c17.1362-26.6753,19.3693-97.993,58.4528-243.8546c-20.6564,77.09-39.8142,130.9931-53.0691,169.3694
		c0.6699-40.5953,1.1035-97.8001,8.0592-177.3058c-6.9557,79.5057-16.4624,135.9166-22.8519,176.0115
		c-6.3895-40.095-15.8962-96.5059-22.8521-176.0115c6.9558,79.5057,7.3894,136.7105,8.0592,177.3058
		c-13.255-38.3763-32.4127-92.2794-53.069-169.3694c39.0835,145.8616,41.3164,217.1793,58.4528,243.8546
		c-26.6753-17.1362-97.993-19.3691-243.8545-58.4526c77.0897,20.6561,130.993,39.814,169.3693,53.0688
		c-40.5955-0.6699-97.8-1.1034-177.3058-8.0592c79.5057,6.9558,135.9166,16.4624,176.0116,22.8521
		c-40.095,6.3896-96.5059,15.8962-176.0116,22.8521c79.5057-6.9558,136.7103-7.3893,177.3058-8.0592
		c-38.3762,13.2549-92.2795,32.4127-169.3693,53.0688c145.8615-39.0835,217.1792-41.3164,243.8545-58.4526
		c-17.1364,26.6753-19.3693,97.9929-58.4528,243.8545c20.6563-77.09,39.814-130.993,53.069-169.3694
		c-0.6698,40.5953-1.1034,97.8-8.0592,177.3059c6.9558-79.5057,16.4625-135.9166,22.8521-176.0116
		c6.3895,40.095,15.8962,96.5059,22.8519,176.0116c-6.9557-79.5059-7.3893-136.7106-8.0592-177.3059
		c13.2549,38.3763,32.4127,92.2794,53.0691,169.3694c-39.0835-145.8615-41.3165-217.1792-58.4528-243.8545
		c26.6753,17.1362,97.993,19.3693,243.8545,58.4526c-77.0897-20.6561-130.993-39.814-169.3693-53.0688
		c40.5955,0.6699,97.8,1.1034,177.3058,8.0592C1459.599,1219.8962,1403.1881,1210.3896,1363.0931,1204z"/>
</g>
</svg>
